# xmcd
# 
# Track frame offsets:
#     150
#     13072
#     25422
#     45717
#     56547
#     69000
#     79652
#     94552
#     102136
#     115932
#     130552
#     144022
#     156480
#     169507
#     180907
#     191147
# 
# Disc length: 2691
# 
# Revision: 6
# Processed by: cddbd v1.5.2PL0 Copyright (c) Steve Scherf et al.
# Submitted via: BonkEnc v1.0
# 
DISCID=bf0a8110
DTITLE=João Nogueira - Meus Momentos
DYEAR=0
DGENRE=Samba
TTITLE0=Nó na Madeira
TTITLE1=Mineira
TTITLE2=Espelho
TTITLE3=Batendo a Porta
TTITLE4=Espere Oh! Nega
TTITLE5=Gago Apaixonado
TTITLE6=E Lá Vou Eu (Mensageiro)
TTITLE7=Moda da Barriga
TTITLE8=Do Jeito que o Rei Mandou
TTITLE9=Eu Sei Portela
TTITLE10=O Homem de Um Braço Só
TTITLE11=Eu Heim, Rosa!
TTITLE12=Maria Rita
TTITLE13=Baile do Elite
TTITLE14=Pimenta no Vatapá
TTITLE15=Entenda a Rosa
EXTD=
EXTT0=
EXTT1=
EXTT2=
EXTT3=
EXTT4=
EXTT5=
EXTT6=
EXTT7=
EXTT8=
EXTT9=
EXTT10=
EXTT11=
EXTT12=
EXTT13=
EXTT14=
EXTT15=
PLAYORDER=
